<svg viewBox="0 0 20 20" fill="white" xmlns="http://www.w3.org/2000/svg">
<path d="M16.9225 3.64553C15.6558 3.05504 14.2844 2.62645 12.8557 2.37883C12.8432 2.37843 12.8308 2.38078 12.8192 2.38571C12.8077 2.39065 12.7974 2.39805 12.7891 2.4074C12.6176 2.72169 12.4176 3.13123 12.2843 3.44552C10.769 3.21695 9.22803 3.21695 7.71275 3.44552C7.57941 3.12171 7.37941 2.72169 7.19845 2.4074C7.18893 2.38835 7.16035 2.37883 7.13178 2.37883C5.70317 2.62645 4.34123 3.05504 3.065 3.64553C3.05548 3.64553 3.04595 3.65505 3.03643 3.66458C0.445883 7.54088 -0.268423 11.3124 0.0839681 15.0458C0.0839681 15.0649 0.0934922 15.0839 0.11254 15.0935C1.82687 16.3506 3.47454 17.1126 5.10315 17.6173C5.13173 17.6269 5.1603 17.6173 5.16982 17.5983C5.55078 17.0745 5.89365 16.5221 6.1889 15.9411C6.20795 15.903 6.1889 15.8649 6.1508 15.8554C5.60793 15.6459 5.09363 15.3982 4.58885 15.1125C4.55076 15.0935 4.55076 15.0363 4.57933 15.0077C4.68409 14.9316 4.78886 14.8458 4.89362 14.7696C4.91267 14.7506 4.94124 14.7506 4.96029 14.7601C8.23657 16.2554 11.77 16.2554 15.0082 14.7601C15.0272 14.7506 15.0558 14.7506 15.0749 14.7696C15.1796 14.8554 15.2844 14.9316 15.3892 15.0173C15.4272 15.0458 15.4272 15.103 15.3796 15.122C14.8844 15.4173 14.3606 15.6554 13.8177 15.8649C13.7796 15.8744 13.7701 15.9221 13.7796 15.9506C14.0844 16.5316 14.4272 17.084 14.7987 17.6078C14.8272 17.6173 14.8558 17.6269 14.8844 17.6173C16.5225 17.1126 18.1702 16.3506 19.8845 15.0935C19.9036 15.0839 19.9131 15.0649 19.9131 15.0458C20.3321 10.7314 19.2178 6.98848 16.9606 3.66458C16.9511 3.65505 16.9416 3.64553 16.9225 3.64553ZM6.68415 12.7696C5.70317 12.7696 4.8841 11.8648 4.8841 10.7505C4.8841 9.63617 5.68412 8.73138 6.68415 8.73138C7.6937 8.73138 8.49372 9.64569 8.4842 10.7505C8.4842 11.8648 7.68418 12.7696 6.68415 12.7696ZM13.3224 12.7696C12.3414 12.7696 11.5224 11.8648 11.5224 10.7505C11.5224 9.63617 12.3224 8.73138 13.3224 8.73138C14.332 8.73138 15.132 9.64569 15.1225 10.7505C15.1225 11.8648 14.332 12.7696 13.3224 12.7696Z" />
</svg>
