<svg viewBox="0 0 20 20" fill="white" xmlns="http://www.w3.org/2000/svg">
<path d="M10.3295 1C9.79702 1 9.31163 1.28067 8.34249 1.83953L3.03371 4.89883C2.1194 5.41508 1.35747 6.1634 0.82482 7.06825C0.292171 7.9731 0.00765808 9.00246 0 10.0524L0 10.2472C0.00771757 11.2958 0.291576 12.3239 0.822995 13.2279C1.35441 14.1319 2.11463 14.88 3.0271 15.3967L6.34809 17.3143C8.29131 18.437 9.26292 19 10.3303 19C11.3968 19.0008 12.3693 18.4403 14.3133 17.3176L17.8225 15.2927C18.7941 14.7313 19.2787 14.4507 19.5453 13.9892C19.812 13.5269 19.8128 12.9656 19.812 11.8429V9.67186C19.8121 9.52124 19.7727 9.37322 19.6976 9.24267C19.6224 9.11213 19.5143 9.00364 19.384 8.92811C19.2536 8.85258 19.1057 8.81266 18.9551 8.81237C18.8045 8.81208 18.6565 8.85142 18.5258 8.92644L11.3209 13.0737C10.8363 13.3519 10.5944 13.4923 10.3295 13.4923C10.0628 13.4923 9.82096 13.3536 9.33556 13.0746L4.46182 10.2737C4.21665 10.1325 4.09365 10.0623 3.99541 10.0499C3.88687 10.0356 3.77663 10.0577 3.68194 10.1126C3.58725 10.1676 3.51344 10.2524 3.47205 10.3537C3.4349 10.4454 3.4349 10.5865 3.43655 10.8697C3.4382 11.0777 3.43655 11.1817 3.45719 11.2775C3.50094 11.4913 3.61321 11.6844 3.77666 11.8281C3.85013 11.8916 3.94011 11.9436 4.12006 12.0476L9.33309 15.0607C9.81931 15.3414 10.0628 15.4817 10.3295 15.4817C10.5961 15.4817 10.8388 15.3414 11.325 15.0615L17.7144 11.3724C17.8811 11.2766 17.9637 11.2304 18.0256 11.2651C18.0875 11.3014 18.0875 11.3972 18.0875 11.5887V12.5735C18.0875 12.8542 18.0883 12.9945 18.0215 13.1092C17.9554 13.2248 17.8341 13.2942 17.5906 13.4345L12.3222 16.4764C11.3498 17.0378 10.8636 17.3185 10.3303 17.3185C9.79702 17.3185 9.30997 17.0378 8.33919 16.4748L3.41096 13.6252L3.37546 13.6045C2.86757 13.3077 2.44583 12.8836 2.15182 12.374C1.85782 11.8645 1.7017 11.2871 1.69888 10.6988V9.75276C1.69912 9.42777 1.78463 9.10852 1.94687 8.82692C2.10911 8.54532 2.3424 8.31121 2.62343 8.14799C2.87203 8.0041 3.15416 7.92827 3.44139 7.92812C3.72863 7.92798 4.01083 8.00353 4.25957 8.14717L8.34249 10.5064C9.31163 11.067 9.79702 11.3476 10.3295 11.3485C10.8619 11.3485 11.3473 11.0678 12.3189 10.5089L18.4953 6.95432C18.6325 6.87535 18.7464 6.76162 18.8256 6.6246C18.9048 6.48757 18.9466 6.33209 18.9466 6.17381C18.9466 6.01553 18.9048 5.86005 18.8256 5.72303C18.7464 5.586 18.6325 5.47228 18.4953 5.3933L12.3164 1.83623C11.3465 1.27902 10.8619 1 10.3303 1H10.3295Z" />
</svg>
