<svg viewBox="0 0 20 20" fill="white" xmlns="http://www.w3.org/2000/svg">
<path d="M10.0017 1C4.89334 0.997935 0.755859 5.13335 0.755859 10.2375C0.755859 14.2738 3.34411 17.7048 6.94865 18.9649C7.43408 19.0868 7.35971 18.7418 7.35971 18.5063V16.9054C4.55664 17.2339 4.44303 15.3789 4.25506 15.0691C3.87498 14.4205 2.97642 14.2552 3.24496 13.9454C3.88324 13.6169 4.53392 14.028 5.28788 15.1414C5.8332 15.949 6.89701 15.8127 7.43614 15.6784C7.55388 15.193 7.80589 14.7592 8.15292 14.4225C5.24863 13.902 4.03816 12.1297 4.03816 10.0227C4.03816 9.00023 4.37486 8.06036 5.03587 7.30227C4.61448 6.05256 5.07511 4.98256 5.13708 4.8235C6.33722 4.71609 7.58487 5.68281 7.68195 5.75924C8.36362 5.5754 9.14236 5.47831 10.0141 5.47831C10.8899 5.47831 11.6707 5.57953 12.3586 5.76544C12.592 5.58779 13.7487 4.7574 14.8642 4.85862C14.9241 5.01767 15.3744 6.06289 14.9778 7.29608C15.6471 8.05623 15.9879 9.00436 15.9879 10.0289C15.9879 12.14 14.7692 13.9144 11.8566 14.4267C12.1061 14.672 12.3042 14.9646 12.4393 15.2873C12.5744 15.6101 12.6439 15.9565 12.6436 16.3064V18.6302C12.6601 18.8162 12.6436 19 12.9535 19C16.6117 17.7668 19.2454 14.311 19.2454 10.2396C19.2454 5.13335 15.1059 1 10.0017 1Z" />
</svg>
