<svg viewBox="0 0 113 113" fill="none" xmlns="http://www.w3.org/2000/svg">
<path fill-rule="evenodd" clip-rule="evenodd" d="M11.973 42.562C17.88 23.997 35.27 10.546 55.804 10.546C81.2 10.546 101.787 31.12 101.787 56.499C101.787 80.074 84.021 99.503 61.138 102.144V87.673C71.169 85.975 79.595 79.565 84.054 70.803H71.314C69.3386 72.9432 66.9407 74.6504 64.272 75.8167C61.6032 76.983 58.7215 77.5831 55.809 77.579C44.15 77.58 34.7 68.141 34.7 56.5C34.7 44.857 44.151 35.419 55.809 35.419C58.8069 35.4153 61.7711 36.0513 64.5035 37.2847C67.2359 38.518 69.6737 40.3203 71.654 42.571H84.242C79.085 32.09 68.29 24.877 55.809 24.877C38.322 24.877 24.146 39.035 24.146 56.498C24.146 72.168 35.56 85.177 50.539 87.683V102.152C32.475 100.094 17.589 87.578 12.095 70.811H1.097C7.439 95.083 29.528 112.996 55.804 112.996C87.029 112.996 112.342 87.702 112.342 56.499C112.341 25.295 87.028 0 55.804 0C29.392 0 7.21 18.098 1 42.562H11.973Z" fill="white"/>
<path d="M67.3816 56.4728C67.3816 62.8728 62.1886 68.0628 55.7816 68.0628C49.3766 68.0628 44.1836 62.8728 44.1836 56.4728C44.1836 50.0728 49.3766 44.8828 55.7826 44.8828C62.1886 44.8828 67.3816 50.0728 67.3816 56.4728Z" fill="#FF7C2B"/>
</svg>
