<svg  viewBox="0 0 482 113" fill="none" xmlns="http://www.w3.org/2000/svg">
<path fill-rule="evenodd" clip-rule="evenodd" d="M10.9733 42.5618C16.8788 23.9967 34.2697 10.5463 54.8041 10.5463C80.2001 10.5463 100.787 31.12 100.787 56.4985C100.787 80.074 83.0209 99.5027 60.1381 102.144V87.673C70.1693 85.9749 78.5949 79.5651 83.0536 70.803H70.3135C66.4571 74.9701 60.9382 77.5791 54.8087 77.5791C43.1511 77.5791 33.7004 68.1409 33.7004 56.4981C33.7004 44.8556 43.1511 35.4178 54.8087 35.4178C61.1205 35.4178 66.7857 38.1844 70.654 42.5703H83.2417C78.0848 32.0901 67.2904 24.8773 54.8087 24.8773C37.3221 24.8773 23.1464 39.0346 23.1464 56.4981C23.1464 72.1689 34.5605 85.177 49.5391 87.683V102.152C31.4754 100.094 16.5892 87.5777 11.0945 70.811H0.0969385C6.43872 95.0834 28.5284 112.996 54.8045 112.996C86.0287 112.996 111.342 87.7015 111.342 56.4985C111.341 25.2951 86.0283 0 54.8041 0C28.3922 0 6.21022 18.0984 0 42.5618H10.9733ZM163.718 77.2885H151.407V59.104L154.919 58.9272H162.291C166.097 58.8684 169.042 59.7001 171.123 61.4232C173.264 63.0871 174.335 65.4043 174.335 68.3754C174.335 71.1089 173.383 73.2778 171.48 74.8821C169.577 76.486 166.99 77.2885 163.718 77.2885ZM175.585 54.305C177.262 53.1969 178.659 51.9154 179.777 50.4603C181.799 47.8459 182.81 44.9048 182.81 41.6367C182.81 37.7739 181.947 34.5653 180.223 32.0109C178.498 29.3961 176.059 27.4352 172.907 26.128C169.815 24.7612 166.127 24.0778 161.845 24.0778L151.407 24.1958V24.167H141.236V86.5576H164.521C168.685 86.5576 172.283 85.8746 175.316 84.5075C178.349 83.1415 180.699 81.1505 182.365 78.5362C184.03 75.9218 184.862 72.7724 184.862 69.0884C184.862 64.8697 183.732 61.4232 181.472 58.7496C179.945 56.9424 177.983 55.4607 175.585 54.305ZM151.407 32.6343H161.31C164.759 32.5751 167.436 33.3181 169.339 34.8624C171.302 36.4075 172.283 38.6064 172.283 41.4579C172.283 44.2506 171.42 46.4492 169.696 48.0534C168.031 49.5989 165.711 50.3715 162.737 50.3715H151.407V32.6343ZM225.227 81.807L225.48 86.5572H234.848L235.115 62.1365C235.115 57.5012 234.402 53.6097 232.974 50.4603C231.547 47.3105 229.376 44.9344 226.461 43.3301C223.606 41.7251 220.008 40.9233 215.667 40.9233C212.276 40.9233 209.333 41.4287 206.834 42.4388C204.396 43.4489 202.374 44.8149 200.768 46.5387C199.162 48.2618 197.853 50.1032 196.843 52.0646L205.942 55.2731C207.013 53.4313 208.351 52.0646 209.957 51.1732C211.563 50.2819 213.407 49.8361 215.488 49.8361C217.748 49.8361 219.562 50.3711 220.93 51.4404C222.357 52.51 223.399 54.0555 224.053 56.0753C224.401 57.1503 224.656 58.3687 224.819 59.7297H213.704C208.113 59.7297 203.742 60.9481 200.59 63.3838C197.497 65.8206 195.951 69.3555 195.951 73.9904C195.951 78.3278 197.408 81.6855 200.322 84.0616C203.296 86.4385 207.459 87.6273 212.812 87.6273C218.224 87.6273 222.209 85.9042 224.767 82.4573C224.926 82.2444 225.079 82.0276 225.227 81.807ZM225.034 68.1079V67.3949H216.916C212.931 67.3949 210.135 67.9591 208.529 69.088C206.924 70.1576 206.121 71.7031 206.121 73.7233C206.121 75.446 206.805 76.8131 208.173 77.8232C209.6 78.7733 211.563 79.2487 214.06 79.2487C216.261 79.2487 218.164 78.7441 219.77 77.7336C221.436 76.6644 222.714 75.2976 223.606 73.6337C224.558 71.9107 225.034 70.0688 225.034 68.1079ZM249.7 86.5572V24.167H259.691V48.502C260.893 46.6275 262.35 45.0816 264.063 43.8648C266.799 41.9034 270.041 40.9233 273.788 40.9233C277.832 40.9233 281.341 41.9034 284.315 43.8648C287.348 45.7662 289.697 48.4697 291.363 51.9754C293.088 55.4215 293.95 59.5214 293.95 64.2751C293.95 68.9692 293.088 73.0691 291.363 76.5748C289.697 80.0813 287.348 82.8144 284.315 84.7754C281.341 86.6768 277.832 87.6273 273.788 87.6273C270.041 87.6273 266.799 86.6768 264.063 84.7754C262.3 83.4832 260.808 81.8562 259.587 79.8937L259.157 86.5572H249.7ZM261.119 71.6731C260.168 69.5338 259.691 67.0678 259.691 64.2751C259.691 61.4824 260.168 59.0167 261.119 56.8774C262.13 54.7385 263.528 53.0746 265.312 51.8862C267.096 50.6974 269.119 50.1032 271.379 50.1032C273.818 50.1032 275.959 50.6974 277.802 51.8862C279.646 53.0746 281.074 54.7385 282.085 56.8774C283.155 59.0167 283.69 61.4824 283.69 64.2751C283.69 67.0678 283.125 69.5338 281.996 71.6731C280.925 73.8121 279.467 75.5059 277.624 76.7531C275.78 77.9416 273.669 78.5362 271.289 78.5362C269.029 78.5362 267.008 77.9416 265.223 76.7531C263.498 75.5059 262.13 73.8121 261.119 71.6731ZM307.526 104.651C309.311 105.186 310.917 105.453 312.344 105.453C315.318 105.453 317.757 104.859 319.66 103.671C321.563 102.542 323.139 100.907 324.388 98.7682C325.697 96.6292 326.975 94.1336 328.224 91.2813L348.922 41.993H338.038L324.823 74.9601L311.184 41.993H300.3L320.131 86.2167L317.697 91.9055C317.103 93.3311 316.299 94.4011 315.288 95.1141C314.337 95.8866 313.147 96.2725 311.72 96.2725C311.125 96.2725 310.352 96.095 309.4 95.7379C308.448 95.4408 307.408 95.0249 306.278 94.4899L302.53 102.601C304.131 103.431 305.803 104.117 307.526 104.651ZM359.333 86.5572V24.167H369.324V86.5572H359.333ZM393.439 84.6858C396.947 86.6468 400.932 87.6273 405.395 87.6273C409.795 87.6273 413.723 86.6468 417.17 84.6858C420.62 82.6657 423.298 79.9029 425.202 76.3972C427.102 72.8908 428.056 68.8504 428.056 64.2751C428.056 59.6997 427.075 55.6594 425.109 52.1541C423.209 48.6477 420.532 45.9145 417.081 43.9535C413.631 41.9334 409.676 40.9233 405.218 40.9233C400.755 40.9233 396.801 41.9334 393.35 43.9535C389.9 45.9145 387.196 48.6477 385.234 52.1541C383.329 55.6594 382.378 59.6997 382.378 64.2751C382.378 68.8504 383.359 72.8908 385.322 76.3972C387.284 79.9029 389.992 82.6657 393.439 84.6858ZM411.907 76.6644C410.003 77.8528 407.834 78.447 405.395 78.447C402.898 78.447 400.667 77.8528 398.705 76.6644C396.801 75.4164 395.285 73.7529 394.154 71.6731C393.085 69.5338 392.547 67.0678 392.547 64.2751C392.547 61.4824 393.085 59.0167 394.154 56.8774C395.224 54.7385 396.713 53.0746 398.613 51.8862C400.517 50.6974 402.717 50.1032 405.218 50.1032C407.714 50.1032 409.915 50.7274 411.819 51.9754C413.723 53.1638 415.208 54.8273 416.277 56.9666C417.408 59.0467 417.974 61.4824 417.974 64.2751C417.974 67.0678 417.439 69.5338 416.37 71.6731C415.296 73.7529 413.811 75.4164 411.907 76.6644ZM441.173 41.993H450.54L451.014 48.1907C452.194 46.285 453.641 44.7538 455.357 43.5972C457.915 41.8146 460.95 40.9233 464.458 40.9233C469.87 40.9233 474.033 42.5872 476.948 45.9145C479.922 49.1827 481.407 54.2331 481.407 61.0665V86.5572H471.417V63.7408C471.417 60.1752 471.001 57.4424 470.167 55.5403C469.393 53.5797 468.262 52.2129 466.778 51.4404C465.35 50.6682 463.654 50.2819 461.692 50.2819C458.361 50.2227 455.776 51.3216 453.929 53.5797C452.087 55.8374 451.164 59.0759 451.164 63.295V86.5572H441.173V41.993Z" fill="white"/>
<path d="M66.3819 56.4732C66.3819 62.8739 61.1888 68.0626 54.7827 68.0626C48.3767 68.0626 43.1836 62.8739 43.1836 56.4732C43.1836 50.0726 48.3767 44.8838 54.7827 44.8838C61.1888 44.8838 66.3819 50.0726 66.3819 56.4732Z" fill="#FF7C2B"/>
</svg>
