<svg viewBox="0 0 482 113" fill="none" xmlns="http://www.w3.org/2000/svg">
<g clip-path="url(#clip0_2487_13212)">
<path fill-rule="evenodd" clip-rule="evenodd" d="M10.973 42.562C16.88 23.997 34.27 10.546 54.804 10.546C80.2 10.546 100.787 31.12 100.787 56.499C100.787 80.074 83.021 99.503 60.138 102.144V87.673C70.169 85.975 78.595 79.565 83.054 70.803H70.314C68.3386 72.9432 65.9407 74.6504 63.272 75.8167C60.6032 76.983 57.7215 77.5831 54.809 77.579C43.15 77.58 33.7 68.141 33.7 56.5C33.7 44.857 43.151 35.419 54.809 35.419C57.8069 35.4153 60.7711 36.0513 63.5035 37.2847C66.2359 38.518 68.6737 40.3203 70.654 42.571H83.242C78.085 32.09 67.29 24.877 54.809 24.877C37.322 24.877 23.146 39.035 23.146 56.498C23.146 72.168 34.56 85.177 49.539 87.683V102.152C31.475 100.094 16.589 87.578 11.095 70.811H0.097C6.439 95.083 28.528 112.996 54.804 112.996C86.029 112.996 111.342 87.702 111.342 56.499C111.341 25.295 86.028 0 54.804 0C28.392 0 6.21 18.098 0 42.562H10.973ZM163.718 77.289H151.407V59.104L154.919 58.927H162.291C166.098 58.8683 169.042 59.7003 171.123 61.423C173.264 63.087 174.335 65.4043 174.335 68.375C174.335 71.109 173.383 73.278 171.48 74.882C169.577 76.486 166.989 77.289 163.718 77.289ZM175.585 54.304C177.262 53.196 178.659 51.9143 179.777 50.459C181.799 47.845 182.81 44.904 182.81 41.636C182.81 37.7727 181.948 34.564 180.223 32.01C178.498 29.3953 176.059 27.4343 172.907 26.127C169.815 24.7603 166.128 24.077 161.845 24.077L151.407 24.195V24.166H141.236V86.556H164.521C168.685 86.5567 172.283 85.8733 175.316 84.506C178.349 83.1393 180.699 81.1493 182.365 78.536C184.03 75.9207 184.862 72.771 184.862 69.087C184.862 64.8683 183.732 61.4223 181.472 58.749C179.945 56.941 177.983 55.4593 175.585 54.304ZM151.407 32.634H161.31C164.759 32.574 167.436 33.3163 169.339 34.861C171.302 36.4063 172.283 38.605 172.283 41.457C172.283 44.2503 171.421 46.4487 169.696 48.052C168.031 49.598 165.711 50.371 162.737 50.371H151.407V32.634ZM225.227 81.806L225.48 86.556H234.848L235.115 62.136C235.115 57.5007 234.401 53.6083 232.974 50.459C231.547 47.3097 229.376 44.933 226.461 43.329C223.606 41.7243 220.008 40.922 215.667 40.922C212.277 40.922 209.333 41.4273 206.834 42.438C204.396 43.4473 202.374 44.814 200.768 46.538C199.161 48.2607 197.853 50.1027 196.843 52.064L205.942 55.272C207.013 53.43 208.351 52.0633 209.957 51.172C211.564 50.2807 213.407 49.835 215.488 49.835C217.748 49.835 219.562 50.3697 220.93 51.439C222.357 52.5097 223.398 54.0547 224.053 56.074C224.401 57.1493 224.656 58.3677 224.819 59.729H213.704C208.113 59.729 203.742 60.947 200.59 63.383C197.497 65.8197 195.95 69.355 195.951 73.989C195.951 78.327 197.408 81.6843 200.322 84.061C203.295 86.4377 207.459 87.626 212.812 87.626C218.224 87.626 222.209 85.9027 224.767 82.456C224.926 82.2427 225.079 82.026 225.227 81.806ZM225.034 68.106V67.394H216.916C212.931 67.394 210.135 67.9583 208.529 69.087C206.924 70.157 206.121 71.702 206.121 73.722C206.121 75.4453 206.805 76.812 208.173 77.822C209.6 78.772 211.563 79.2473 214.06 79.248C216.261 79.248 218.164 78.743 219.77 77.733C221.436 76.663 222.715 75.2963 223.606 73.633C224.549 71.9444 225.041 70.0401 225.034 68.106ZM249.7 86.557V24.167H259.691V48.502C260.893 46.6273 262.35 45.0817 264.063 43.865C266.799 41.9037 270.041 40.923 273.788 40.923C277.832 40.923 281.341 41.9037 284.315 43.865C287.348 45.7663 289.698 48.4697 291.363 51.975C293.088 55.4217 293.95 59.5217 293.95 64.275C293.95 68.969 293.088 73.069 291.363 76.575C289.697 80.0817 287.348 82.815 284.315 84.775C281.341 86.6763 277.832 87.627 273.788 87.627C270.041 87.627 266.8 86.6763 264.063 84.775C262.3 83.483 260.808 81.856 259.587 79.894L259.157 86.557H249.7ZM261.119 71.673C260.168 69.533 259.692 67.067 259.691 64.275C259.691 61.4823 260.167 59.0163 261.119 56.877C262.13 54.7383 263.528 53.075 265.312 51.887C267.097 50.697 269.119 50.1023 271.379 50.103C273.818 50.103 275.959 50.6973 277.802 51.886C279.646 53.0747 281.074 54.7383 282.085 56.877C283.155 59.017 283.69 61.483 283.69 64.275C283.69 67.0683 283.125 69.5343 281.996 71.673C280.925 73.813 279.467 75.5063 277.624 76.753C275.781 77.9417 273.669 78.536 271.289 78.536C269.029 78.536 267.007 77.9417 265.223 76.753C263.498 75.5063 262.13 73.813 261.119 71.673ZM307.526 104.651C309.311 105.186 310.917 105.453 312.344 105.453C315.318 105.453 317.757 104.859 319.66 103.671C321.563 102.542 323.139 100.907 324.388 98.768C325.697 96.6293 326.975 94.1337 328.224 91.281L348.922 41.993H338.038L324.823 74.96L311.184 41.993H300.3L320.131 86.217L317.697 91.906C317.102 93.3313 316.299 94.4007 315.288 95.114C314.337 95.8867 313.147 96.2727 311.72 96.272C311.125 96.272 310.352 96.094 309.4 95.738C308.448 95.4413 307.407 95.0253 306.278 94.49L302.53 102.601C304.131 103.431 305.803 104.117 307.526 104.651ZM359.333 86.557V24.167H369.324V86.557H359.333ZM393.439 84.686C396.947 86.646 400.932 87.6263 405.395 87.627C409.795 87.627 413.723 86.647 417.17 84.686C420.621 82.666 423.298 79.903 425.202 76.397C427.103 72.8903 428.055 68.8497 428.056 64.275C428.057 59.6997 427.074 55.6597 425.109 52.155C423.209 48.6483 420.533 45.9143 417.081 43.953C413.631 41.933 409.677 40.923 405.218 40.923C400.756 40.923 396.8 41.933 393.35 43.953C389.901 45.9143 387.195 48.648 385.234 52.154C383.329 55.6593 382.377 59.6997 382.378 64.275C382.378 68.8503 383.359 72.891 385.322 76.397C387.285 79.903 389.99 82.666 393.439 84.686ZM411.907 76.664C410.004 77.8527 407.833 78.447 405.395 78.447C402.898 78.447 400.668 77.8527 398.705 76.664C396.802 75.416 395.285 73.7527 394.154 71.674C393.084 69.534 392.548 67.0677 392.547 64.275C392.548 61.4823 393.084 59.0163 394.154 56.877C395.224 54.738 396.713 53.075 398.613 51.887C400.516 50.697 402.718 50.1023 405.218 50.103C407.715 50.103 409.915 50.727 411.819 51.975C413.722 53.1637 415.208 54.8277 416.277 56.967C417.408 59.047 417.974 61.483 417.974 64.275C417.974 67.0683 417.439 69.5343 416.37 71.673C415.296 73.753 413.811 75.416 411.907 76.664ZM441.173 41.993H450.54L451.014 48.191C452.194 46.285 453.642 44.7537 455.357 43.597C457.916 41.8143 460.949 40.923 464.458 40.923C469.87 40.923 474.033 42.5867 476.948 45.914C479.921 49.1833 481.408 54.234 481.407 61.066V86.557H471.417V63.741C471.417 60.175 471 57.4417 470.167 55.541C469.392 53.5797 468.263 52.213 466.778 51.441C465.35 50.6677 463.655 50.281 461.692 50.281C458.362 50.2223 455.774 51.322 453.929 53.58C452.086 55.8373 451.165 59.0757 451.164 63.295V86.557H441.173V41.993Z" fill="white"/>
<path d="M66.3816 56.4728C66.3816 62.8728 61.1886 68.0628 54.7816 68.0628C48.3766 68.0628 43.1836 62.8728 43.1836 56.4728C43.1836 50.0728 48.3766 44.8828 54.7826 44.8828C61.1886 44.8828 66.3816 50.0728 66.3816 56.4728Z" fill="#FF7C2B"/>
</g>
</svg>
