<svg viewBox="0 0 128 37" fill="none" xmlns="http://www.w3.org/2000/svg">
<path fill-rule="evenodd" clip-rule="evenodd" d="M7.39502 11.2373H19.9134V13.2699H9.41889V15.7771H19.8669V25.7621H7.39062V23.7295H17.843V21.434H7.39502V11.2373ZM17.843 19.4014V17.8098H9.41889V19.4014H17.843ZM22.5609 11.2373H24.5848V18.1136H33.7766V11.2373H35.8005V20.1462H30.1926V25.7621H28.1688V20.1462H22.5609V11.2373ZM38.5744 11.2373H51.814V25.7621H49.7901V13.2699H46.3019V19.7913H44.2779V13.2699H40.5983V25.7621H38.5744V11.2373ZM54.5036 11.2373H67.3216V25.7621H54.5036V11.2373ZM56.5275 13.2699V17.5504H65.2977V13.2699H56.5275ZM65.2977 19.583H56.5275V23.7295H65.2977V19.583ZM70.546 25.7621V11.2373H72.5698V25.7621H70.546ZM75.7942 11.2373H88.612V25.7621H75.7942V11.2373ZM77.818 13.2699V23.7295H86.5883V13.2699H77.818ZM95.3274 13.2699H90.6363V11.2373H101.852V13.2699H97.3518V25.7621H95.3274V13.2699ZM104.392 25.7621V11.2373H106.415V25.7621H104.392ZM108.88 11.2373H120.686V13.2699H110.904V23.7295H120.686V25.7621H108.88V11.2373Z" fill="#C0FD5A"/>
</svg>
